<svg id="Livello_1" data-name="Livello 1" xmlns="http://www.w3.org/2000/svg" viewBox="0 0 841.65 587"><defs><style>.cls-1{fill:#444;}.cls-2{fill:none;stroke:#0097bf;stroke-linecap:round;stroke-linejoin:round;stroke-width:28px;}</style></defs><title>logo_1.0</title><g id="black"><path class="cls-1" d="M221.86,315.78a111.3,111.3,0,0,1-187.7,57.31V322.48c12,32.06,42.38,55,78.42,55a83.45,83.45,0,0,0,79.5-108.85c5.13,7.48,11.06,16.59,17.9,27.68l1,1.62C215.08,304.64,218.69,310.55,221.86,315.78Z"/></g><path class="cls-1" d="M447,254.16A111.79,111.79,0,0,0,342.76,182.5c-33.2,0-62.6,14.59-83.6,37.7V14a14,14,0,0,0-28,0V259.4s0.22,0,.22,0c1.21,1.89,2.68,3.84,4,5.86,2.55,4,5.19,8.24,8,12.77,1,1.62,1.85,3.19,2.85,4.71h0c4,7.09,8.1,13.21,11.33,18.55,1,1.71,2.06,3.34,3,4.89A83.49,83.49,0,1,1,426.57,294a84.36,84.36,0,0,1-1,12.7c3.21-6.93,5.5-13.09,7.5-18.32Z"/><path class="cls-2" d="M827.65,194.54c-51.66,0-24.47,203.49-88.08,189.24-51.09-11.45-18.59-181.63-68.8-189l-3.05-.22c-51.66,0-24.47,203.49-88.08,189.24-58.11-13-15.15-202.7-71.85-188.48-22.49,5.64-50.45,79.7-56.64,95.69-4.35,11.24-10.62,29.29-25.14,50.7-9.32,13.74-18.15,26.45-34.86,36.3a96.43,96.43,0,0,1-49.06,12.5c-31.73-.48-54.51-16.16-62.1-23.18C254.36,344.05,258.75,340,226.16,287c-33.88-55.13-47.52-65.59-54.49-70.4-10.8-7.45-33.89-22.88-65.83-21-38,2.24-61.55,27.38-66.48,32.9C16,254.66,14.21,284.67,14,293V573"/></svg>