<svg id="Livello_1" data-name="Livello 1" xmlns="http://www.w3.org/2000/svg" viewBox="0 0 233.59 132.75"><defs><style>.cls-1{fill:red;}</style></defs><title>pbw_old</title><path class="cls-1" d="M34.85,0L26.52,35.33H76.85L86.18,0H34.85ZM71.31,29.06H34.61l5.9-22.79H77.74Z"/><path class="cls-1" d="M207.9,38L194.84,60.91,194.19,38H171.33L154.57,59.82,160,38H136.28l-1.74,7.4a9.9,9.9,0,0,0-2.18-4.13A10.29,10.29,0,0,0,126,38H103.63L114.29,0H90.35L77.72,46.33a9.2,9.2,0,0,0-6.53-8.06L24.82,38,0,132.75H23.08l7.4-26.56H53.34a11,11,0,0,0,4.57-1.09,15.46,15.46,0,0,0,3.87-2.86c0,1.16-.6,2.79-0.6,4h46.37A15.94,15.94,0,0,0,120.82,99q-0.75,3.48-1.52,7l21.12,0.22,29.6-37L170.9,106l22.64,0.22,40-68.14H207.9ZM60.81,93.65a7,7,0,0,1-2,3.92,7.22,7.22,0,0,1-5.36,1.93H25l-6.9,26.25-10.21.18L30.44,44.41H69.3a3.57,3.57,0,0,1,2.76,3.41A17.57,17.57,0,0,1,72,50.54a18.86,18.86,0,0,1-.52,2.65Zm56,0.2a11.34,11.34,0,0,1-8.44,5.6H69.8L95.74,6.27h10.34L95.21,44.41h29.62a3.54,3.54,0,0,1,1.75.54c1.87,1.21,2.45,4.39,1.4,7.91Q122.39,73.35,116.8,93.85Zm73,5.84H177.43l-0.6-49.26-39.2,49-10.33.24,14.08-55.28h10.14L143.75,76,148.14,78,174.57,44.4h13.72l0.6,39.53,22.62-39.52h10.25Z"/><path class="cls-1" d="M227,0H116.8l-9.21,35.33H228.14ZM115.89,29.06l6-22.79h97.92l1,22.79H115.89Z"/><path class="cls-1" d="M58.27,60.53a17.59,17.59,0,0,0-.48-3,4.77,4.77,0,0,0-1.14-2,4.84,4.84,0,0,0-2.28-1.33H37.62L27.43,89.84h19A6.37,6.37,0,0,0,52,86q2.7-9.46,5.42-18.94A17.46,17.46,0,0,0,58.27,60.53Zm-6.66,4.09Q48.79,74,46,83.27a1.79,1.79,0,0,1-1.62,1.14H35L42,60.24h9.62a0.66,0.66,0,0,1,.2.06C52.7,60.78,51.77,64,51.61,64.62Z"/><path class="cls-1" d="M113.56,58.55a17.4,17.4,0,0,0-.47-1.89,4.32,4.32,0,0,0-1-1.46,4.24,4.24,0,0,0-1.87-1H93.55l-10,35.69h19.15a10.2,10.2,0,0,0,5.88-5.43l4.56-18A16.93,16.93,0,0,0,113.56,58.55Zm-6,5.8q-0.72,3.13-1.58,6.4-1.46,5.45-3.07,10.37a4.45,4.45,0,0,1-.92,1.77,4.52,4.52,0,0,1-1.33,1H91.26l6.8-23.69,8.61-.06a1.16,1.16,0,0,1,.76.16C108.38,60.93,107.9,63.18,107.59,64.35Z"/><path class="cls-1" d="M34.4,108.2l-7.88,24.55H179l13.15-24.55H34.4Zm140.13,17.73H35l3.17-10.46H180.55Z"/></svg>